<?xml version="1.0" encoding="UTF-8"?>
<svg id="Capa_1" data-name="Capa 1" xmlns="http://www.w3.org/2000/svg" viewBox="0 0 250.83 79.42">
  <defs>
    <style>
      .cls-1 {
        fill: #fff;
      }

      .cls-2 {
        fill: #f23005;
      }
    </style>
  </defs>
  <g>
    <path class="cls-2" d="m79.48,72.67v-19.62h10.2c1.6,0,2.92.29,3.94.88,1.03.59,1.79,1.41,2.3,2.45.51,1.05.76,2.26.76,3.64s-.33,2.48-.99,3.49c-.66,1.01-1.54,1.77-2.63,2.3.22.18.42.4.58.66.16.25.35.6.55,1.05l2.25,5.15h-5.97l-2.07-4.72c-.16-.37-.36-.62-.59-.78-.23-.15-.56-.23-.99-.23h-1.61v5.73h-5.73Zm5.73-10.11h3.02c.83,0,1.48-.22,1.93-.66.46-.44.69-1.06.69-1.87,0-1.73-.81-2.59-2.44-2.59h-3.2v5.12Z"/>
    <path class="cls-2" d="m96.84,72.67l7.52-19.62h6.06l7.52,19.62h-5.97l-1.64-4.17h-5.91l-1.61,4.17h-5.97Zm8.35-8.29h4.39l-2.19-5.76-2.19,5.76Z"/>
    <path class="cls-2" d="m120.09,72.67v-19.62h8.77c2.01,0,3.73.33,5.15.99,1.42.66,2.51,1.72,3.26,3.17.75,1.45,1.13,3.38,1.13,5.77,0,3.37-.82,5.83-2.47,7.37s-4,2.32-7.07,2.32h-8.77Zm5.73-4.39h2.32c.95,0,1.76-.14,2.41-.41.65-.27,1.15-.79,1.49-1.55.35-.76.52-1.87.52-3.34s-.16-2.59-.47-3.4c-.32-.8-.8-1.36-1.45-1.68-.65-.31-1.48-.47-2.5-.47h-2.32v10.84Z"/>
    <path class="cls-2" d="m140.52,72.67v-19.62h5.73v19.62h-5.73Z"/>
    <path class="cls-2" d="m158.41,72.98c-3.25,0-5.73-.79-7.45-2.38-1.72-1.58-2.57-4.14-2.57-7.68,0-2.44.39-4.4,1.16-5.89.77-1.49,1.9-2.58,3.4-3.26,1.49-.68,3.32-1.02,5.47-1.02s3.98.34,5.47,1.02c1.49.68,2.62,1.77,3.4,3.26.77,1.49,1.16,3.46,1.16,5.89,0,3.53-.86,6.09-2.59,7.68-1.73,1.58-4.2,2.38-7.43,2.38Zm0-4.87c1.46,0,2.52-.41,3.18-1.23.66-.82.99-2.14.99-3.94,0-1.93-.33-3.29-.99-4.1-.66-.8-1.72-1.2-3.18-1.2s-2.52.4-3.18,1.2c-.66.8-.99,2.17-.99,4.1,0,1.81.33,3.12.99,3.94.66.82,1.72,1.23,3.18,1.23Z"/>
  </g>
  <path class="cls-2" d="m38.01,45.91l14.19-36.99h11.43l14.19,36.99h-11.26l-3.1-7.87h-11.14l-3.04,7.87h-11.26Zm15.74-15.62h8.27l-4.14-10.86-4.14,10.86Z"/>
  <path class="cls-2" d="m79.88,45.91V8.93h19.07c3.02,0,5.52.6,7.5,1.81,1.97,1.21,3.44,2.84,4.39,4.91.96,2.07,1.44,4.37,1.44,6.89s-.56,4.92-1.67,6.95c-1.11,2.03-2.68,3.62-4.71,4.77-2.03,1.15-4.42,1.72-7.18,1.72h-8.04v9.94h-10.8Zm10.8-18.21h5.57c1.68,0,2.94-.48,3.76-1.44.82-.96,1.23-2.2,1.23-3.73,0-1.65-.38-2.95-1.15-3.91-.77-.96-1.95-1.44-3.56-1.44h-5.86v10.51Z"/>
  <path class="cls-2" d="m183.65,45.91v-28.95h-10.4v-8.04h31.59v8.04h-10.4v28.95h-10.8Z"/>
  <g>
    <path class="cls-2" d="m8.83,45.91V8.93h10.8v28.72h16.66v8.27H8.83Z"/>
    <path class="cls-2" d="m201.69,45.91l14.19-36.99h11.43l14.19,36.99h-11.26l-3.1-7.87h-11.14l-3.04,7.87h-11.26Zm15.74-15.62h8.27l-4.14-10.86-4.14,10.86Z"/>
  </g>
  <circle class="cls-2" cx="123.97" cy="17.01" r="6.61"/>
  <circle class="cls-2" cx="141.05" cy="17.01" r="6.61"/>
  <path class="cls-1" d="m130.19,46.39h-12.83v-9h12.83c12.68,0,28.47,0,28.47-28.47h9c0,37.47-25.31,37.47-37.47,37.47Z"/>
</svg>