<?xml version="1.0" encoding="utf-8"?>
<!-- Generator: Adobe Illustrator 27.1.0, SVG Export Plug-In . SVG Version: 6.00 Build 0)  -->
<svg version="1.1" id="Capa_1" xmlns="http://www.w3.org/2000/svg" xmlns:xlink="http://www.w3.org/1999/xlink" x="0px" y="0px"
	 viewBox="0 0 250.8 79.4" style="enable-background:new 0 0 250.8 79.4;" xml:space="preserve">
<style type="text/css">
	.st0{fill:#F23005;}
	.st1{fill:#FFFFFF;}
</style>
<g>
	<circle class="st0" cx="6.9" cy="21.5" r="5.7"/>
	<circle class="st0" cx="21.6" cy="21.5" r="5.7"/>
	<g>
		<path class="st1" d="M12.3,45H1.2v-7.8h11.1c10.9,0,24.5,0,24.5-24.5h7.8C44.6,45,22.8,45,12.3,45z"/>
	</g>
</g>
<g>
	<path class="st0" d="M45.5,43.8L52,13.2h9.7l-0.2,2.6c1.4-0.9,3.1-1.6,5.1-2.3c2-0.7,4.1-1,6.3-1c4,0,6.6,1,8,3.1
		c1.4,2,1.7,4.9,0.9,8.5l-4.1,19.6H67.3L71.2,25c0.4-1.7,0.3-2.9-0.2-3.7c-0.5-0.7-1.7-1.1-3.6-1.1c-1.1,0-2.3,0.3-3.7,0.8
		c-1.3,0.5-2.5,1.2-3.4,1.9l-4.4,20.8H45.5z"/>
	<path class="st0" d="M94.9,44.4c-3.4,0-5.9-1.1-7.6-3.2c-1.7-2.1-2.1-5.1-1.3-8.8l4.1-19.2h10.4l-3.9,18.6c-0.4,1.7-0.3,3,0.3,3.8
		c0.6,0.8,1.8,1.2,3.6,1.2c1.2,0,2.5-0.3,3.7-0.8c1.2-0.5,2.3-1.2,3.2-1.9l4.4-20.9h10.4l-6.4,30.6h-9.7l0.2-2.6
		c-1.5,0.9-3.1,1.7-5,2.3C99.4,44.1,97.3,44.4,94.9,44.4z"/>
	<path class="st0" d="M133.5,44.4c-2.5,0-4.7-0.2-6.8-0.5c-2.1-0.3-3.8-0.8-5-1.3l1.7-7.9c1.4,0.6,3,1.1,4.9,1.5
		c1.9,0.3,3.6,0.5,5.2,0.5c1.8,0,3.2-0.1,4.1-0.3c0.9-0.2,1.4-0.6,1.5-1.4c0.2-0.9-0.3-1.5-1.6-1.9c-1.3-0.4-3.1-1.1-5.3-1.9
		c-2.6-1-4.5-2.1-5.6-3.5c-1.1-1.3-1.4-3.3-0.9-5.8c0.6-3,2.1-5.3,4.6-6.9c2.5-1.6,6.3-2.4,11.5-2.4c1.9,0,3.8,0.2,5.7,0.5
		c1.8,0.3,3.3,0.6,4.4,1l-1.6,7.8c-1.1-0.6-2.4-1-3.9-1.2c-1.5-0.3-2.8-0.4-4.1-0.4c-1.6,0-3,0.1-4.1,0.3c-1.1,0.2-1.8,0.7-1.9,1.4
		c-0.2,0.8,0.3,1.4,1.4,1.7c1.1,0.3,2.8,0.8,4.9,1.6c2.2,0.7,3.9,1.5,5.1,2.4c1.2,0.8,1.9,1.8,2.2,3c0.3,1.2,0.3,2.6-0.1,4.4
		c-0.7,3.1-2.3,5.4-4.8,7C142.5,43.6,138.7,44.4,133.5,44.4z"/>
	<path class="st0" d="M164.3,44.4c-3.4,0-5.9-1.1-7.6-3.2c-1.7-2.1-2.1-5.1-1.3-8.8l4.1-19.2h10.4l-3.9,18.6c-0.4,1.7-0.3,3,0.3,3.8
		c0.6,0.8,1.8,1.2,3.6,1.2c1.2,0,2.5-0.3,3.7-0.8c1.2-0.5,2.3-1.2,3.2-1.9l4.4-20.9h10.4l-6.4,30.6h-9.7l0.2-2.6
		c-1.5,0.9-3.1,1.7-5,2.3C168.7,44.1,166.6,44.4,164.3,44.4z"/>
	<path class="st0" d="M203.9,44.4c-4.2,0-7.3-1.2-9.2-3.7s-2.4-6.1-1.4-11c0.7-3.4,1.9-6.4,3.5-8.9c1.6-2.6,3.7-4.6,6.3-6
		c2.6-1.5,5.5-2.2,8.9-2.2c1.8,0,3.2,0.2,4.3,0.6c1.1,0.4,2.1,1,3,1.8l0.3-1.7h10.4l-6.4,30.6h-9l-0.1-2.6
		C211.6,43.4,208,44.4,203.9,44.4z M208.9,36.9c2.3,0,4.4-0.8,6.3-2.3l2.6-12.3c-0.9-1.4-2.4-2.1-4.6-2.1c-2.5,0-4.4,0.8-5.9,2.3
		c-1.5,1.5-2.6,3.9-3.4,7.3c-0.6,2.7-0.5,4.6,0.3,5.6C205,36.4,206.5,36.9,208.9,36.9z"/>
	<path class="st0" d="M239.4,44.4c-3.1,0-5.3-0.7-6.5-2.2c-1.3-1.5-1.6-3.8-0.9-7l7.4-34.9h10.4l-7.2,33.9c-0.2,1-0.1,1.7,0.2,2
		c0.3,0.4,0.9,0.5,1.7,0.5c1.2,0,2.2-0.2,3.2-0.5l-1.5,7c-1.1,0.4-2.1,0.7-3.1,0.8C242.1,44.3,240.9,44.4,239.4,44.4z"/>
	<path class="st0" d="M71.5,77.6L75.7,58H82l-0.2,1.8c1-0.5,2.1-1,3.5-1.4c1.4-0.4,2.7-0.7,4-0.8l-1,5c-0.7,0.1-1.6,0.2-2.5,0.4
		c-0.9,0.2-1.8,0.4-2.6,0.6c-0.8,0.2-1.6,0.5-2.2,0.8l-2.8,13.2H71.5z"/>
	<path class="st0" d="M94.6,78.1c-2.7,0-4.7-0.8-5.9-2.4c-1.2-1.6-1.5-3.9-0.9-7.1c0.5-2.2,1.2-4.1,2.3-5.7c1-1.6,2.4-2.9,4-3.9
		c1.6-0.9,3.6-1.4,5.7-1.4c1.1,0,2,0.1,2.7,0.4c0.7,0.3,1.3,0.6,1.9,1.1l0.2-1.1h6.7l-4.1,19.6h-5.8l0-1.7
		C99.6,77.4,97.3,78.1,94.6,78.1z M97.8,73.2c1.5,0,2.8-0.5,4.1-1.5l1.7-7.9c-0.6-0.9-1.5-1.4-2.9-1.4c-1.6,0-2.8,0.5-3.8,1.5
		c-1,1-1.7,2.5-2.2,4.7c-0.4,1.7-0.3,2.9,0.2,3.6C95.3,72.9,96.3,73.2,97.8,73.2z"/>
	<path class="st0" d="M119.7,78.1c-1.6,0-3.1-0.4-4.3-1.1c-1.2-0.7-2.1-1.8-2.6-3.3c-0.5-1.5-0.5-3.4,0-5.7c0.7-3.5,2.1-6.2,4.2-7.8
		c2-1.7,4.5-2.5,7.4-2.5c2.1,0,3.8,0.4,5.1,1.3l1.9-9.2h6.7l-5.9,27.9h-5.8l0-1.7c-0.9,0.7-1.9,1.2-3,1.6
		C122.2,77.9,121,78.1,119.7,78.1z M122.6,73.2c1.5,0,2.8-0.5,4.1-1.5l1.7-8c-0.8-0.9-1.9-1.3-3.4-1.3c-1.4,0-2.6,0.4-3.5,1.3
		c-0.9,0.9-1.6,2.3-2,4.2c-0.4,1.9-0.4,3.2,0.1,4C120.1,72.8,121.1,73.2,122.6,73.2z"/>
	<path class="st0" d="M138.2,77.6l3.1-14.7h-2.9L140,58h9l-4.1,19.6H138.2z M142.5,54.9l1.1-5h7.2l-1.1,5H142.5z"/>
	<path class="st0" d="M159.3,78.1c-3.5,0-6.1-0.9-7.6-2.6c-1.5-1.8-2-4.3-1.3-7.6c0.7-3.3,2.1-5.8,4.1-7.6c2.1-1.8,5.1-2.7,9.1-2.7
		c3.6,0,6.2,0.9,7.7,2.7c1.5,1.8,1.9,4.3,1.2,7.6c-0.7,3.3-2.1,5.8-4.1,7.6C166.3,77.2,163.3,78.1,159.3,78.1z M160.4,72.8
		c1.5,0,2.7-0.4,3.6-1.2c0.8-0.8,1.4-2.1,1.8-3.9c0.4-1.8,0.3-3.1-0.2-3.9c-0.5-0.8-1.5-1.2-3.1-1.2c-1.5,0-2.7,0.4-3.5,1.2
		c-0.8,0.8-1.4,2.1-1.8,3.9c-0.4,1.8-0.3,3.1,0.2,3.9C157.9,72.4,158.9,72.8,160.4,72.8z"/>
</g>
</svg>
